<svg width="677" height="382" viewBox="0 0 677 382" fill="none" xmlns="http://www.w3.org/2000/svg">
<path d="M403.218 43.25L411.431 26.8248C413.073 23.5496 412.897 19.6555 410.965 16.5363C409.035 13.4157 405.635 11.5156 401.969 11.5156H338.5C332.653 11.5156 327.922 16.2467 327.922 22.0938V64.4062C327.922 70.2533 332.653 74.9844 338.5 74.9844H401.969C405.635 74.9844 409.035 73.083 410.967 69.9637C412.899 66.8445 413.074 62.9491 411.432 59.6752L403.218 43.25Z" fill="#60DC4D"/>
<path d="M338.5 106.719C332.653 106.719 327.922 101.988 327.922 96.1406V11.5156C327.922 5.66857 332.653 0.9375 338.5 0.9375C344.347 0.9375 349.078 5.66857 349.078 11.5156V96.1406C349.078 101.988 344.347 106.719 338.5 106.719Z" fill="#5C546A"/>
<path d="M645.266 212.5H476.016V360.594H645.266V212.5Z" fill="#3F3D56"/>
<path d="M200.984 212.5H31.7344V360.594H200.984V212.5Z" fill="#3F3D56"/>
<path d="M454.859 223.078H645.266C651.113 223.078 655.844 218.347 655.844 212.5C655.844 206.653 651.113 201.922 645.266 201.922H454.859C449.012 201.922 444.281 206.653 444.281 212.5C444.281 218.347 449.012 223.078 454.859 223.078Z" fill="#82D517"/>
<path d="M222.141 223.078H31.7344C25.8873 223.078 21.1562 218.347 21.1562 212.5C21.1562 206.653 25.8873 201.922 31.7344 201.922H222.141C227.988 201.922 232.719 206.653 232.719 212.5C232.719 218.347 227.988 223.078 222.141 223.078Z" fill="#82D517"/>
<path d="M507.75 339.438C513.597 339.438 518.328 334.706 518.328 328.859V318.281C518.328 312.434 513.597 307.703 507.75 307.703C501.903 307.703 497.172 312.434 497.172 318.281V328.859C497.172 334.706 501.903 339.438 507.75 339.438Z" fill="#5C546A"/>
<path d="M539.484 339.438C545.331 339.438 550.062 334.706 550.062 328.859V318.281C550.062 312.434 545.331 307.703 539.484 307.703C533.637 307.703 528.906 312.434 528.906 318.281V328.859C528.906 334.706 533.637 339.438 539.484 339.438Z" fill="#5C546A"/>
<path d="M571.219 339.438C577.066 339.438 581.797 334.706 581.797 328.859V318.281C581.797 312.434 577.066 307.703 571.219 307.703C565.372 307.703 560.641 312.434 560.641 318.281V328.859C560.641 334.706 565.372 339.438 571.219 339.438Z" fill="#5C546A"/>
<path d="M602.953 339.438C608.8 339.438 613.531 334.706 613.531 328.859V318.281C613.531 312.434 608.8 307.703 602.953 307.703C597.106 307.703 592.375 312.434 592.375 318.281V328.859C592.375 334.706 597.106 339.438 602.953 339.438Z" fill="#5C546A"/>
<path d="M507.75 297.125C513.597 297.125 518.328 292.394 518.328 286.547V254.812C518.328 248.965 513.597 244.234 507.75 244.234C501.903 244.234 497.172 248.965 497.172 254.812V286.547C497.172 292.394 501.903 297.125 507.75 297.125Z" fill="#5C546A"/>
<path d="M539.484 297.125C545.331 297.125 550.062 292.394 550.062 286.547V254.812C550.062 248.965 545.331 244.234 539.484 244.234C533.637 244.234 528.906 248.965 528.906 254.812V286.547C528.906 292.394 533.637 297.125 539.484 297.125Z" fill="#5C546A"/>
<path d="M571.219 297.125C577.066 297.125 581.797 292.394 581.797 286.547V254.812C581.797 248.965 577.066 244.234 571.219 244.234C565.372 244.234 560.641 248.965 560.641 254.812V286.547C560.641 292.394 565.372 297.125 571.219 297.125Z" fill="#5C546A"/>
<path d="M602.953 297.125C608.8 297.125 613.531 292.394 613.531 286.547V254.812C613.531 248.965 608.8 244.234 602.953 244.234C597.106 244.234 592.375 248.965 592.375 254.812V286.547C592.375 292.394 597.106 297.125 602.953 297.125Z" fill="#5C546A"/>
<path d="M200.984 175.828H476.016L338.5 102.493L200.984 175.828Z" fill="#82D517"/>
<path d="M465.148 180.766H211.273V371.172H465.148V180.766Z" fill="#3F3D56"/>
<path d="M338.5 381.75C332.653 381.75 327.922 377.019 327.922 371.172V180.766C327.922 174.919 332.653 170.188 338.5 170.188C344.347 170.188 349.078 174.919 349.078 180.766V371.172C349.078 377.019 344.347 381.75 338.5 381.75Z" fill="#82D517"/>
<path d="M296.188 381.75C290.34 381.75 285.609 377.019 285.609 371.172V180.766C285.609 174.919 290.34 170.188 296.188 170.188C302.035 170.188 306.766 174.919 306.766 180.766V371.172C306.766 377.019 302.035 381.75 296.188 381.75Z" fill="#82D517"/>
<path d="M253.875 381.75C248.028 381.75 243.297 377.019 243.297 371.172V180.766C243.297 174.919 248.028 170.188 253.875 170.188C259.722 170.188 264.453 174.919 264.453 180.766V371.172C264.453 377.019 259.722 381.75 253.875 381.75Z" fill="#82D517"/>
<path d="M423.125 381.75C417.278 381.75 412.547 377.019 412.547 371.172V180.766C412.547 174.919 417.278 170.188 423.125 170.188C428.972 170.188 433.703 174.919 433.703 180.766V371.172C433.703 377.019 428.972 381.75 423.125 381.75Z" fill="#82D517"/>
<path d="M380.812 381.75C374.965 381.75 370.234 377.019 370.234 371.172V180.766C370.234 174.919 374.965 170.188 380.812 170.188C386.66 170.188 391.391 174.919 391.391 180.766V371.172C391.391 377.019 386.66 381.75 380.812 381.75Z" fill="#82D517"/>
<path d="M465.438 381.75C459.59 381.75 454.859 377.019 454.859 371.172V180.766C454.859 174.919 459.59 170.188 465.438 170.188C471.285 170.188 476.016 174.919 476.016 180.766V371.172C476.016 377.019 471.285 381.75 465.438 381.75Z" fill="#82D517"/>
<path d="M211.562 381.75C205.715 381.75 200.984 377.019 200.984 371.172V180.766C200.984 174.919 205.715 170.188 211.562 170.188C217.41 170.188 222.141 174.919 222.141 180.766V371.172C222.141 377.019 217.41 381.75 211.562 381.75Z" fill="#82D517"/>
<path d="M497.172 191.344H179.828C174.973 191.344 170.748 188.038 169.57 183.327C168.392 178.626 170.572 173.719 174.848 171.426L333.52 86.8015C336.64 85.1486 340.359 85.1486 343.478 86.8015L502.15 171.426C506.426 173.719 508.607 178.626 507.429 183.327C506.252 188.038 502.027 191.344 497.172 191.344ZM222.141 170.187H454.859L338.5 108.134L222.141 170.187Z" fill="#3F3D56"/>
<path d="M169.25 339.438C163.403 339.438 158.672 334.706 158.672 328.859V318.281C158.672 312.434 163.403 307.703 169.25 307.703C175.097 307.703 179.828 312.434 179.828 318.281V328.859C179.828 334.706 175.097 339.438 169.25 339.438Z" fill="#5C546A"/>
<path d="M137.516 339.438C131.669 339.438 126.938 334.706 126.938 328.859V318.281C126.938 312.434 131.669 307.703 137.516 307.703C143.363 307.703 148.094 312.434 148.094 318.281V328.859C148.094 334.706 143.363 339.438 137.516 339.438Z" fill="#5C546A"/>
<path d="M105.781 339.438C99.9342 339.438 95.2031 334.706 95.2031 328.859V318.281C95.2031 312.434 99.9342 307.703 105.781 307.703C111.628 307.703 116.359 312.434 116.359 318.281V328.859C116.359 334.706 111.628 339.438 105.781 339.438Z" fill="#5C546A"/>
<path d="M74.0469 339.438C68.1998 339.438 63.4688 334.706 63.4688 328.859V318.281C63.4688 312.434 68.1998 307.703 74.0469 307.703C79.8939 307.703 84.625 312.434 84.625 318.281V328.859C84.625 334.706 79.8939 339.438 74.0469 339.438Z" fill="#5C546A"/>
<path d="M169.25 297.125C163.403 297.125 158.672 292.394 158.672 286.547V254.812C158.672 248.965 163.403 244.234 169.25 244.234C175.097 244.234 179.828 248.965 179.828 254.812V286.547C179.828 292.394 175.097 297.125 169.25 297.125Z" fill="#5C546A"/>
<path d="M137.516 297.125C131.669 297.125 126.938 292.394 126.938 286.547V254.812C126.938 248.965 131.669 244.234 137.516 244.234C143.363 244.234 148.094 248.965 148.094 254.812V286.547C148.094 292.394 143.363 297.125 137.516 297.125Z" fill="#5C546A"/>
<path d="M105.781 297.125C99.9342 297.125 95.2031 292.394 95.2031 286.547V254.812C95.2031 248.965 99.9342 244.234 105.781 244.234C111.628 244.234 116.359 248.965 116.359 254.812V286.547C116.359 292.394 111.628 297.125 105.781 297.125Z" fill="#5C546A"/>
<path d="M74.0469 297.125C68.1998 297.125 63.4688 292.394 63.4688 286.547V254.812C63.4688 248.965 68.1998 244.234 74.0469 244.234C79.8939 244.234 84.625 248.965 84.625 254.812V286.547C84.625 292.394 79.8939 297.125 74.0469 297.125Z" fill="#5C546A"/>
<path d="M359.367 159.609H317.633C311.786 159.609 307.055 154.878 307.055 149.031C307.055 143.184 311.786 138.453 317.633 138.453H359.367C365.214 138.453 369.945 143.184 369.945 149.031C369.945 154.878 365.214 159.609 359.367 159.609Z" fill="#3F3D56"/>
<path d="M666.422 381.75H10.5781C4.73107 381.75 0 377.019 0 371.172C0 365.325 4.73107 360.594 10.5781 360.594H666.422C672.269 360.594 677 365.325 677 371.172C677 377.019 672.269 381.75 666.422 381.75Z" fill="#5C546A"/>
</svg>
