<svg width="448" height="341" viewBox="0 0 448 341" fill="none" xmlns="http://www.w3.org/2000/svg">
<path d="M262.864 100.405H184.978V129.613H155.771V207.498H184.978V236.705H262.864V207.498H292.071V129.613H262.864V100.405Z" fill="#60DC4D"/>
<path d="M0 41.9918V295.119H447.842V41.9918H0ZM360.22 236.705V265.912H87.6213V236.705H58.4145V207.498H29.2068V129.613H58.4136V100.406H87.6204V71.1994H360.22V100.406H389.426V129.613H418.633V207.498H389.426V236.705H360.22Z" fill="#60DC4D"/>
<path d="M61.9244 341L224.5 178.038L387.076 341L394.61 333.466L232.022 170.497L394.61 7.52357L387.076 0L224.5 162.957L61.9244 0L54.3904 7.52357L216.978 170.497L54.3904 333.466L61.9244 341Z" fill="black"/>
</svg>
