<svg width="418" height="418" viewBox="0 0 418 418" fill="none" xmlns="http://www.w3.org/2000/svg">
<g clip-path="url(#clip0)">
<path d="M208.231 124.941C235.188 124.941 257.04 103.089 257.04 76.1318C257.04 49.1749 235.188 27.3221 208.231 27.3221C181.274 27.3221 159.421 49.1749 159.421 76.1318C159.421 103.089 181.274 124.941 208.231 124.941Z" fill="#60DC4D"/>
<path d="M379.092 210.417L333.601 200.928C318.103 197.681 302.802 204.785 294.712 217.413C286.855 213.378 278.406 209.897 269.419 207.009V179.958C269.437 159.491 252.682 142.754 232.287 142.754H185.774C165.271 142.754 148.588 159.491 148.588 179.958V207.152C139.691 209.986 131.331 213.466 123.42 217.521C115.331 204.838 100.011 197.681 84.4943 200.928L38.9669 210.417C18.9837 214.597 6.0141 234.419 10.1937 254.473L21.6207 309.059C25.7645 329.06 45.6039 342.03 65.6054 337.85L80.0095 334.836C87.2203 345.491 97.1944 355.268 109.966 363.627C136.568 381.063 171.71 390.678 209.002 390.678C266.064 390.678 315.215 367.735 337.852 334.782L352.49 337.85C372.473 342.011 392.313 329.06 396.457 309.059L407.901 254.473C412.062 234.419 399.093 214.597 379.092 210.417ZM208.984 372.04C175.296 372.04 143.725 363.555 120.172 348.039C112.1 342.765 105.409 336.899 100.046 330.621L111.078 328.307C131.097 324.145 144.066 304.323 139.887 284.304L129.644 235.225C135.617 232.014 141.896 229.198 148.569 226.794V235.746C148.569 256.177 165.287 272.914 185.754 272.914H232.268C252.682 272.914 269.4 256.16 269.4 235.746V226.328C276.199 228.75 282.585 231.53 288.505 234.687L278.118 284.323C273.974 304.342 286.926 324.164 306.945 328.325L318.084 330.657C297.312 355.25 256.216 372.04 208.984 372.04Z" fill="#3F3D56"/>
<path d="M369.19 189.107C396.147 189.107 418 167.254 418 140.297C418 113.34 396.147 91.4872 369.19 91.4872C342.233 91.4872 320.381 113.34 320.381 140.297C320.381 167.254 342.233 189.107 369.19 189.107Z" fill="#60DC4D"/>
<path d="M58.8238 188.084C85.2286 182.559 102.091 156.674 96.6373 130.287C91.0764 103.918 65.2454 86.9841 38.8222 92.5092C12.4531 98.016 -4.48064 123.883 1.04448 150.27C6.55214 176.675 32.4189 193.591 58.8238 188.084Z" fill="#60DC4D"/>
</g>
<defs>
<clipPath id="clip0">
<rect width="418" height="418" fill="white"/>
</clipPath>
</defs>
</svg>
