<svg width="376" height="430" viewBox="0 0 376 430" fill="none" xmlns="http://www.w3.org/2000/svg">
<path d="M375.74 28.16L375.06 37.29C374.96 38.53 372.59 68.05 355.11 102.55C340.11 132.14 310.92 170.68 255.81 192.34C251.51 194.04 247.047 195.627 242.42 197.1L237.26 180.9C250.214 176.823 262.693 171.365 274.48 164.62C302.57 148.4 324.41 125.25 339.64 95.46C347.72 79.5992 353.479 62.6594 356.74 45.16H294.04V28.16H375.74Z" fill="#82D517"/>
<path opacity="0.1" d="M249.06 192.35C304.16 170.69 333.36 132.16 348.35 102.57C365.83 68.07 368.21 38.57 368.3 37.31L368.98 28.18H375.98L375.3 37.31C375.21 38.55 372.83 68.07 355.35 102.57C340.35 132.16 311.16 170.69 256.06 192.35C251.76 194.05 247.293 195.64 242.66 197.12L241.98 194.99C244.393 194.13 246.753 193.25 249.06 192.35Z" fill="white"/>
<path d="M138.74 180.9L133.58 197.1C128.947 195.62 124.48 194.03 120.18 192.33C65.08 170.67 35.88 132.14 20.89 102.55C3.41002 68.05 1.03003 38.55 0.940033 37.29L0.26001 28.16H81.92V45.16H19.21C22.488 62.6616 28.2637 79.6013 36.36 95.46C51.59 125.25 73.42 148.4 101.51 164.61C113.298 171.362 125.781 176.824 138.74 180.9Z" fill="#82D517"/>
<path opacity="0.1" d="M126.92 192.35C71.82 170.69 42.62 132.16 27.63 102.57C10.15 68.07 7.76999 38.57 7.67999 37.31L7 28.18H0L0.679993 37.31C0.769993 38.55 3.15001 68.07 20.63 102.57C35.63 132.16 64.82 170.69 119.92 192.35C124.22 194.05 128.687 195.64 133.32 197.12L134 194.99C131.593 194.13 129.233 193.25 126.92 192.35Z" fill="white"/>
<path d="M282.33 337.5V429.17H93.66V337.5L99.66 329.5C160.8 307.8 173.19 251.21 175.66 228.82C176.028 225.726 176.238 222.615 176.29 219.5H199.62C199.672 222.615 199.882 225.726 200.25 228.82C202.76 251.21 215.15 307.82 276.25 329.5L282.33 337.5Z" fill="#82D517"/>
<path opacity="0.1" d="M282.33 337.5H93.66V349H282.33V337.5Z" fill="black"/>
<path opacity="0.1" d="M109.66 329.5C170.8 307.8 183.19 251.21 185.66 228.82C186.028 225.726 186.238 222.615 186.29 219.5H176.29C176.238 222.615 176.028 225.726 175.66 228.82C173.15 251.21 160.76 307.82 99.66 329.5L93.66 337.5V429.17H103.66V337.5L109.66 329.5Z" fill="white"/>
<path opacity="0.1" d="M65 28.16H81.92V45.16H66.5C65.8933 39.56 65.3933 33.8934 65 28.16Z" fill="black"/>
<path opacity="0.1" d="M138.74 180.9L133.58 197.1C128.947 195.62 124.48 194.03 120.18 192.33C113.107 183.692 106.856 174.412 101.51 164.61C113.298 171.362 125.781 176.824 138.74 180.9Z" fill="black"/>
<path opacity="0.1" d="M237.25 180.9C250.204 176.823 262.683 171.365 274.47 164.62C269.121 174.423 262.871 183.706 255.8 192.35C251.5 194.05 247.037 195.637 242.41 197.11L237.25 180.9Z" fill="black"/>
<path opacity="0.1" d="M310.98 28.16C310.587 33.8934 310.087 39.56 309.48 45.16H294.07V28.16H310.98Z" fill="black"/>
<path opacity="0.1" d="M200.29 228.82C192.169 230.393 183.821 230.393 175.7 228.82C176.068 225.726 176.278 222.615 176.33 219.5H199.66C199.712 222.615 199.922 225.726 200.29 228.82Z" fill="black"/>
<path d="M67 0C67.43 126.06 121.43 228 188 228C254.57 228 308.56 126.06 309 0H67Z" fill="#82D517"/>
<path opacity="0.1" d="M88.5 0H67C67.43 126.06 121.43 228 188 228C191.602 227.993 195.198 227.689 198.75 227.09C137.21 216.81 88.91 119.2 88.5 0Z" fill="white"/>
<path d="M252.16 372.59H123.83V405.59H252.16V372.59Z" fill="#3F3D56"/>
<path opacity="0.1" d="M129.83 377.09H252.16V372.59H123.83V405.59H129.83V377.09Z" fill="white"/>
</svg>
